<svg width="20" height="26" viewBox="0 0 20 26" fill="none" xmlns="http://www.w3.org/2000/svg">
<path id="&#238;&#128;&#157;" d="M7.1875 12.5859C7.83854 13.2109 8.60677 13.5234 9.49219 13.5234C10.4036 13.5234 11.1719 13.2109 11.7969 12.5859C12.4479 11.9349 12.7734 11.1667 12.7734 10.2812C12.7734 9.36979 12.4479 8.60156 11.7969 7.97656C11.1719 7.32552 10.4036 7 9.49219 7C8.60677 7 7.83854 7.32552 7.1875 7.97656C6.5625 8.60156 6.25 9.36979 6.25 10.2812C6.25 11.1667 6.5625 11.9349 7.1875 12.5859ZM8.08594 8.83594C8.47656 8.44531 8.94531 8.25 9.49219 8.25C10.0651 8.25 10.5469 8.44531 10.9375 8.83594C11.3281 9.22656 11.5234 9.70833 11.5234 10.2812C11.5234 10.8281 11.3281 11.2969 10.9375 11.6875C10.5469 12.0781 10.0651 12.2734 9.49219 12.2734C8.94531 12.2734 8.47656 12.0781 8.08594 11.6875C7.69531 11.2969 7.5 10.8281 7.5 10.2812C7.5 9.70833 7.69531 9.22656 8.08594 8.83594ZM9.0625 22.8984C9.14062 23.0026 9.24479 23.0938 9.375 23.1719C9.45312 23.1979 9.51823 23.2109 9.57031 23.2109C9.6224 23.2109 9.6875 23.1979 9.76562 23.1719C9.86979 23.0938 9.97396 23.0026 10.0781 22.8984C10.2344 22.7422 10.4427 22.5078 10.7031 22.1953C10.9635 21.8828 11.4323 21.2708 12.1094 20.3594C12.8125 19.4219 13.4375 18.5104 13.9844 17.625C14.5312 16.7135 15.0521 15.6589 15.5469 14.4609C16.0417 13.263 16.3411 12.1432 16.4453 11.1016C16.4974 10.7891 16.5234 10.5026 16.5234 10.2422C16.5234 8.3151 15.8333 6.67448 14.4531 5.32031C13.099 3.9401 11.4453 3.25 9.49219 3.25C7.5651 3.25 5.91146 3.9401 4.53125 5.32031C3.17708 6.67448 2.5 8.3151 2.5 10.2422C2.5 10.5286 2.52604 10.8281 2.57812 11.1406C2.68229 12.1562 2.96875 13.263 3.4375 14.4609C3.93229 15.6328 4.47917 16.7005 5.07812 17.6641C5.70312 18.6276 6.3151 19.513 6.91406 20.3203C7.53906 21.1276 8.04688 21.7526 8.4375 22.1953C8.82812 22.6641 9.03646 22.8984 9.0625 22.8984ZM5.42969 6.17969C6.54948 5.0599 7.90365 4.5 9.49219 4.5C11.0807 4.5 12.4349 5.0599 13.5547 6.17969C14.7005 7.29948 15.2734 8.65365 15.2734 10.2422C15.2734 10.4505 15.2474 10.6979 15.1953 10.9844C15.0911 11.9479 14.8047 13.0026 14.3359 14.1484C13.8932 15.2682 13.3333 16.3359 12.6562 17.3516C11.9792 18.3672 11.4062 19.2005 10.9375 19.8516C10.4688 20.4766 10.013 21.0625 9.57031 21.6094C9.10156 21.0625 8.61979 20.4766 8.125 19.8516C7.65625 19.2005 7.08333 18.3672 6.40625 17.3516C5.72917 16.3359 5.14323 15.2682 4.64844 14.1484C4.17969 13.0026 3.89323 11.9479 3.78906 10.9844C3.76302 10.6979 3.75 10.4505 3.75 10.2422C3.75 8.65365 4.3099 7.29948 5.42969 6.17969Z" fill="black"/>
</svg>
